{"title":"The Big Wedding.mp4","uid":8459498,"size":416661087,"categoryP":"video","categoryS":"movies","magnet":"?xt=urn:btih:da8d8c4ff99642182dd4232a5a44eb988c83a9ac&amp;dn=The+Big+Wedding.mp4&amp;tr=udp%3A%2F%2Ftracker.openbittorrent.com%3A80&amp;tr=udp%3A%2F%2Fopen.demonii.com%3A1337&amp;tr=udp%3A%2F%2Ftracker.coppersurfer.tk%3A6969&amp;tr=udp%3A%2F%2Fexodus.desync.com%3A6969","seeders":1,"leechers":0,"uploader":"globeplus","files":-1,"time":1368199501,"description":"The Big Wedding.mp4\n\nGeneral\n\nFormat                                   : MPEG-4\nCodec ID                                 : M4V \nFile size                                : 397 MiB\nDuration                                 : 1h 23mn\nOverall bit rate mode                    : Variable\nOverall bit rate                         : 669 Kbps\n\nVideo\nID                                       : 1\nFormat                                   : AVC\nFormat/Info                              : Advanced Video Codec\nFormat profile                           : &lt;a class=&quot;__cf_email__&quot; href=&quot;/cdn-cgi/l/email-protection&quot; data-cfemail=&quot;044c6d636c4448372a35&quot;&gt;[email&amp;#160;protected]&lt;/a&gt;&lt;script data-cfhash='f9e31' type=&quot;text/javascript&quot;&gt;\n/* &lt;![CDATA[ */!function(){try{var t=&quot;currentScript&quot;in document?document.currentScript:function(){for(var t=document.getElementsByTagName(&quot;script&quot;),e=t.length;e--;)if(t[e].getAttribute(&quot;data-cfhash&quot;))return t[e]}();if(t&amp;&amp;t.previousSibling){var e,r,n,i,c=t.previousSibling,a=c.getAttribute(&quot;data-cfemail&quot;);if(a){for(e=&quot;&quot;,r=parseInt(a.substr(0,2),16),n=2;a.length-n;n+=2)i=parseInt(a.substr(n,2),16)^r,e+=String.fromCharCode(i);e=document.createTextNode(e),c.parentNode.replaceChild(e,c)}t.parentNode.removeChild(t);}}catch(u){}}()/* ]]&gt; */&lt;/script&gt;\nFormat settings, CABAC                   : Yes\nFormat settings, ReFrames                : 2 frames\nCodec ID                                 : avc1\nCodec ID/Info                            : Advanced Video Coding\nDuration                                 : 1h 23mn\nBit rate mode                            : Variable\nBit rate                                 : 619 Kbps\nMaximum bit rate                         : 2 025 Kbps\nWidth                                    : 896 pixels\nHeight                                   : 508 pixels\nDisplay aspect ratio                     : 16:9\nFrame rate mode                          : Constant\nFrame rate                               : 29.970 fps\nColor space                              : YUV\nChroma subsampling                       : 4:2:0\nBit depth                                : 8 bits\nScan type                                : Progressive\nBits/(Pixel*Frame)                       : 0.045\nStream size                              : 368 MiB (93%)\nWriting library                          : x264 core 120 r2151 \n\nAudio\nID                                       : 2\nFormat                                   : AAC\nFormat/Info                              : Advanced Audio Codec\nFormat profile                           : HE-AAC / LC\nCodec ID                                 : 40\nDuration                                 : 1h 23mn\nBit rate mode                            : Variable\nBit rate                                 : 48.0 Kbps\nMaximum bit rate                         : 53.3 Kbps\nChannel(s)                               : 2 channels\nChannel positions                        : Front: L R\nSampling rate                            : 48.0 KHz / 24.0 KHz\nCompression mode                         : Lossy\nStream size                              : 28.5 MiB (7%)\nLanguage                                 : English\n\nPlot\n\nDon and Ellie Griffin, a long divorced couple, are forced to pretend that they are still happily married at their adopted son Alejandro's wedding. His biological mother, Donna, a Catholic from Colombia, is also attending, and has not been told that her son's adoptive parents have gotten divorced. Among all of their family and friends, the hoax snowballs into a story about the ties that bind.\n\n\n\n* enjoy ...","torrent":{"xt":"urn:btih:da8d8c4ff99642182dd4232a5a44eb988c83a9ac","amp;dn":"The+Big+Wedding.mp4","amp;tr":["udp%3A%2F%2Ftracker.openbittorrent.com%3A80","udp%3A%2F%2Fopen.demonii.com%3A1337","udp%3A%2F%2Ftracker.coppersurfer.tk%3A6969","udp%3A%2F%2Fexodus.desync.com%3A6969"],"infoHash":"da8d8c4ff99642182dd4232a5a44eb988c83a9ac","infoHashBuffer":{"type":"Buffer","data":[218,141,140,79,249,150,66,24,45,212,35,42,90,68,235,152,140,131,169,172]},"announce":[],"urlList":[]}}